<svg xmlns="http://www.w3.org/2000/svg" viewBox="0 0 32 32" fill="none">
  <defs>
    <linearGradient id="fg" x1="0" y1="0" x2="28" y2="32" gradientUnits="userSpaceOnUse">
      <stop offset="0%"   stop-color="#1EC8B0"/>
      <stop offset="50%"  stop-color="#0B7065"/>
      <stop offset="100%" stop-color="#032820"/>
    </linearGradient>
    <linearGradient id="fdk" x1="0" y1="0" x2="24" y2="32" gradientUnits="userSpaceOnUse">
      <stop offset="0%"   stop-color="#063530"/>
      <stop offset="100%" stop-color="#020C0A"/>
    </linearGradient>
  </defs>
  <!-- D exterior -->
  <path d="M3 2 L3 30 L15 30 C24 30 29 24 29 16 C29 8 24 2 15 2 Z" fill="url(#fg)"/>
  <!-- Counter interior -->
  <path d="M8 7 L8 25 L14 25 C20 25 24 21 24 16 C24 11 20 7 14 7 Z" fill="url(#fdk)"/>
  <!-- Acento blanco angular (dos piezas) -->
  <polygon points="3.5,3  9,3  14,16  9,15  3.5,15"   fill="white"/>
  <polygon points="3.5,17  9,17  14,16  9,29  3.5,29"  fill="white" opacity="0.88"/>
</svg>
